<mxfile host="app.diagrams.net" modified="2023-05-08T23:00:23.796Z" agent="Mozilla/5.0 (X11; Linux x86_64) AppleWebKit/537.36 (KHTML, like Gecko) Chrome/112.0.0.0 Safari/537.36" version="21.2.9" etag="l9Zod5foD-LWmvxyyeq4" type="github">
  <diagram name="Page-1" id="hMwc9FfHLseGXFT_n1Vd">
    <mxGraphModel>
      <root>
        <mxCell id="0" />
        <mxCell id="1" parent="0" />
      </root>
    </mxGraphModel>
  </diagram>
</mxfile>
